<svg width="40" height="40" viewBox="0 0 40 40" fill="none" xmlns="http://www.w3.org/2000/svg">
<g clip-path="url(#clip0_99_63)">
<path d="M40 0H0V40H40V0Z" fill="#12100E"/>
<path d="M9.54536 13.3776C9.57875 13.0477 9.45296 12.7217 9.20664 12.4997L6.69761 9.47713V9.02563H14.4882L20.5099 22.232L25.8039 9.02563H33.2307V9.47713L31.0855 11.534C30.9005 11.6749 30.8088 11.9066 30.8471 12.136V27.2486C30.8088 27.478 30.9005 27.7097 31.0855 27.8506L33.1805 29.9075V30.359H22.6425V29.9075L24.8129 27.8005C25.0261 27.5873 25.0261 27.5246 25.0261 27.1985V14.9829L18.9919 30.3088H18.1765L11.1511 14.9829V25.2545C11.0926 25.6864 11.236 26.1211 11.54 26.4334L14.3627 29.8573V30.3088H6.35889V29.8573L9.18155 26.4334C9.48339 26.1206 9.61845 25.683 9.54536 25.2545V13.3776Z" fill="white"/>
</g>
<defs>
<clipPath id="clip0_99_63">
<rect width="40" height="40" fill="white"/>
</clipPath>
</defs>
</svg>
