<svg width="160" height="54" viewBox="0 0 160 54" fill="none" xmlns="http://www.w3.org/2000/svg">
<path d="M11.0884 15.3727L6.98689 11.0005C2.2993 15.7773 -0.0439994 21.412 0.000625488 27C0.000625488 32.589 2.34393 38.177 7.03152 42.9995L11.0874 38.6282C8.29292 35.6989 6.30959 31.5071 6.26496 27.0456C6.22034 22.4483 8.15805 18.2119 11.0874 15.3727H11.0884Z" fill="url(#paint0_linear_3_1187)"/>
<path d="M24.0237 15.3722L19.9221 11C18.2542 12.6224 11.0884 17.896 11.0884 27.0451C11.0884 36.2845 18.2542 41.4223 19.9668 43L24.0227 38.6287C14.9182 31.5532 14.828 22.1334 24.0227 15.3732L24.0237 15.3722Z" fill="url(#paint1_linear_3_1187)"/>
<path d="M25.417 34.5466C25.417 34.5466 24.0237 31.3881 24.0237 26.883C24.0237 22.7963 25.417 19.2194 25.417 19.2194H30.3396C30.3396 19.2194 28.8997 22.7953 28.8997 26.9286C28.8997 31.3871 30.3396 34.5456 30.3396 34.5456H25.417V34.5466ZM33.7301 34.5466C33.0329 29.6696 32.9873 24.0498 33.7301 19.2204H38.4672L38.0954 21.1244C39.3498 19.6379 40.7887 18.9417 42.4607 18.9417C44.5511 18.9417 45.9444 19.8243 46.8726 21.6817C48.0338 20.0564 49.799 18.9417 52.0739 18.9417C55.7896 18.9417 57.4616 21.3108 57.4616 25.1654V34.5476H52.5846V25.4907C52.5846 23.8187 51.8418 22.9828 50.4485 22.9828C48.962 22.9828 47.8474 24.0508 47.8474 25.3975V34.5466H42.9704V25.4897C42.9704 23.9566 42.3199 22.9818 40.8343 22.9818C38.8837 22.9818 37.9546 24.0032 37.9546 27.8588C37.9546 29.5773 38.14 32.9212 38.2798 34.5466H33.7281H33.7301ZM60.7142 40.7702V19.2204H65.3126L65.4058 20.7991C66.4272 19.6379 68.1924 18.9417 70.0964 18.9417C74.2296 18.9417 76.7375 22.4711 76.7375 26.8374C76.7375 31.2037 74.1364 34.7796 69.9565 34.7796C68.4234 34.7796 66.6126 34.0825 65.5912 33.0611V40.7702H60.7142ZM68.7487 30.6454C70.7459 30.6454 71.9994 29.2055 71.9994 26.8374C71.9994 24.4693 70.8847 22.9828 68.7487 22.9828C66.7515 22.9828 65.4048 24.4227 65.4048 26.8374C65.4048 29.02 66.6126 30.6454 68.7487 30.6454ZM84.4001 34.8252C80.9164 34.8252 79.0124 32.5494 79.0124 28.6015V19.2194H83.8428V28.0432C83.8428 29.5297 84.5399 30.7832 86.2575 30.7832C87.7906 30.7832 88.7654 29.7618 88.7654 28.3685V19.2194H93.6424V34.5456H89.0907L88.9509 32.595C88.0683 33.9416 86.3497 34.8242 84.3991 34.8242L84.4001 34.8252ZM97.2184 34.5466V13.2298H102.095V34.5476H97.2184V34.5466ZM110.826 34.8252C108.178 34.8252 105.578 33.9426 103.953 32.1775L106.879 29.6229C108.04 30.691 109.527 31.3415 111.059 31.3415C111.895 31.3415 112.592 30.9696 112.592 30.2269C112.592 29.3443 111.663 29.0656 109.712 28.6015C106.74 27.8588 104.557 26.4655 104.557 23.6789C104.557 20.7069 107.575 18.8951 110.734 18.8951C112.963 18.8951 115.285 19.5457 117.143 21.2176L114.635 24.0042C113.706 23.1682 112.174 22.2856 110.734 22.2856C109.712 22.2856 109.247 22.6109 109.247 23.4003C109.247 24.4217 110.687 24.7469 112.498 25.212C115.099 25.9548 117.282 27.1626 117.282 29.6706C117.282 32.7358 114.402 34.8262 110.826 34.8262V34.8252ZM126.896 34.8252C122.344 34.8252 118.49 31.5745 118.49 26.8374C118.49 22.3788 122.065 18.8951 126.896 18.8951C131.726 18.8951 135.209 22.1458 135.209 26.8374C135.209 31.5289 131.54 34.8252 126.896 34.8252ZM126.896 30.5987C128.94 30.5987 130.24 28.9734 130.24 26.8364C130.24 24.6993 128.893 23.0284 126.896 23.0284C124.899 23.0284 123.459 24.6071 123.459 26.8364C123.459 28.8336 124.713 30.5987 126.896 30.5987Z" fill="white"/>
<path d="M135.209 38.6278L139.311 43C140.978 41.3776 148.144 36.104 148.144 26.9549C148.144 17.7155 140.978 12.5777 139.266 11L135.21 15.3713C144.314 22.4468 144.405 31.8666 135.21 38.6268L135.209 38.6278Z" fill="url(#paint2_linear_3_1187)"/>
<path d="M148.144 38.6273L152.246 42.9995C156.933 38.2227 159.277 32.588 159.232 27C159.232 21.411 156.889 15.823 152.201 11.0005L148.145 15.3718C150.94 18.3011 152.923 22.4929 152.968 26.9544C153.012 31.5517 151.075 35.7881 148.145 38.6273H148.144Z" fill="url(#paint3_linear_3_1187)"/>
<defs>
<linearGradient id="paint0_linear_3_1187" x1="5.54501" y1="-3.98949" x2="5.54501" y2="37.8419" gradientUnits="userSpaceOnUse">
<stop stop-color="#5700C9"/>
<stop offset="0.44" stop-color="#7D00FF"/>
<stop offset="1" stop-color="#81E0FF"/>
</linearGradient>
<linearGradient id="paint1_linear_3_1187" x1="17.557" y1="7.98733" x2="17.557" y2="42.7878" gradientUnits="userSpaceOnUse">
<stop stop-color="#5700C9"/>
<stop offset="0.44" stop-color="#7D00FF"/>
<stop offset="1" stop-color="#81E0FF"/>
</linearGradient>
<linearGradient id="paint2_linear_3_1187" x1="141.677" y1="46.0117" x2="141.677" y2="11.2122" gradientUnits="userSpaceOnUse">
<stop stop-color="#5700C9"/>
<stop offset="0.44" stop-color="#7D00FF"/>
<stop offset="1" stop-color="#81E0FF"/>
</linearGradient>
<linearGradient id="paint3_linear_3_1187" x1="153.688" y1="57.9895" x2="153.688" y2="16.1581" gradientUnits="userSpaceOnUse">
<stop stop-color="#5700C9"/>
<stop offset="0.44" stop-color="#7D00FF"/>
<stop offset="1" stop-color="#81E0FF"/>
</linearGradient>
</defs>
</svg>
